<svg id="Layer_1" data-name="Layer 1" xmlns="http://www.w3.org/2000/svg" viewBox="0 0 36 36">
    <defs>
        <style>
            .cls-1 {
                fill: #000;
                fill-opacity: 0.0;
            }
            .cls-2 {
                fill: #7fd1d8;
            }
        </style>
    </defs>
    <title>sound01</title>
    <g id="Component_4_220" data-name="Component 4 220">
        <circle id="Ellipse_380-2" data-name="Ellipse 380-2" class="cls-1" cx="18" cy="18" r="18" />
        <g id="Group_1572" data-name="Group 1572">
            <path id="Path_1223" data-name="Path 1223" class="cls-2" d="M23.63,23.53v5.41A1.06,1.06,0,0,1,23,30a1,1,0,0,1-1.13-.2l-3.81-3.05a.72.72,0,0,0-.38-.13c-.55,0-1.1,0-1.65,0A1,1,0,0,1,15,25.64v-.08q0-2.07,0-4.14a1,1,0,0,1,1-1h.08c.55,0,1.1,0,1.65,0a.85.85,0,0,0,.46-.16c1.29-1,2.56-2,3.84-3a.94.94,0,0,1,1.06-.09,1,1,0,0,1,.57.91Zm-.76,0c0-1.77,0-3.54,0-5.31,0-.15.05-.36-.14-.45s-.33.07-.45.16l-3.86,3a1,1,0,0,1-.47.15c-.6,0-1.21,0-1.81,0-.26,0-.38.11-.38.36v3.95c0,.27.13.39.4.38.43,0,.87,0,1.3,0a1.76,1.76,0,0,1,1.34.48c1.19,1,2.4,1.94,3.61,2.9a.34.34,0,0,0,.31.07c.08,0,.12-.18.15-.28a.94.94,0,0,0,0-.29Z" transform="translate(-6 -6)" />
            <path id="Path_1224" data-name="Path 1224" class="cls-2" d="M33,23.35a11.2,11.2,0,0,1-1.45,5.26c-.13.26-.29.5-.43.75a.37.37,0,0,1-.49.22l-.08,0c-.22-.14-.19-.36-.07-.57.28-.54.6-1.07.85-1.62A9.22,9.22,0,0,0,32.14,22a9,9,0,0,0-1.56-3.74l-.11-.16a.38.38,0,0,1,.05-.53.37.37,0,0,1,.53.05l0,.05a9.48,9.48,0,0,1,1.54,3.1A9.05,9.05,0,0,1,33,23.35Z" transform="translate(-6 -6)" />
            <path id="Path_1225" data-name="Path 1225" class="cls-2" d="M30.37,23.32A10.88,10.88,0,0,1,29.3,27.8a.4.4,0,0,1-.5.26l-.06,0c-.22-.08-.26-.3-.13-.57a9.6,9.6,0,0,0,1-4.43,6.71,6.71,0,0,0-1-3.4.39.39,0,0,1,.6-.49l0,.07a7.2,7.2,0,0,1,1,2.87C30.32,22.5,30.34,22.91,30.37,23.32Z" transform="translate(-6 -6)" />
            <path id="Path_1226" data-name="Path 1226" class="cls-2" d="M28.22,23.37a5.18,5.18,0,0,1-1.1,3.07c-.13.18-.32.31-.55.13a.38.38,0,0,1-.12-.52l.06-.07A5.36,5.36,0,0,0,27.4,24a3.13,3.13,0,0,0-.78-2.83c-.14-.16-.31-.33-.18-.57s.45-.28.69,0A4,4,0,0,1,28.22,23.37Z" transform="translate(-6 -6)" />
        </g>
    </g>
</svg>