<?xml version="1.0" encoding="UTF-8" standalone="no"?>
<svg
   xmlns:dc="http://purl.org/dc/elements/1.1/"
   xmlns:cc="http://creativecommons.org/ns#"
   xmlns:rdf="http://www.w3.org/1999/02/22-rdf-syntax-ns#"
   xmlns:svg="http://www.w3.org/2000/svg"
   xmlns="http://www.w3.org/2000/svg"
   xmlns:sodipodi="http://sodipodi.sourceforge.net/DTD/sodipodi-0.dtd"
   xmlns:inkscape="http://www.inkscape.org/namespaces/inkscape"
   id="Layer_1"
   data-name="Layer 1"
   viewBox="0 0 36 36"
   version="1.1"
   sodipodi:docname="sound02.svg"
   inkscape:version="0.92.3 (2405546, 2018-03-11)">
  <metadata
     id="metadata3935">
    <rdf:RDF>
      <cc:Work
         rdf:about="">
        <dc:format>image/svg+xml</dc:format>
        <dc:type
           rdf:resource="http://purl.org/dc/dcmitype/StillImage" />
        <dc:title>sound02</dc:title>
      </cc:Work>
    </rdf:RDF>
  </metadata>
  <sodipodi:namedview
     pagecolor="#ffffff"
     bordercolor="#666666"
     borderopacity="1"
     objecttolerance="10"
     gridtolerance="10"
     guidetolerance="10"
     inkscape:pageopacity="0"
     inkscape:pageshadow="2"
     inkscape:window-width="1366"
     inkscape:window-height="713"
     id="namedview3933"
     showgrid="false"
     inkscape:zoom="6.5555556"
     inkscape:cx="18"
     inkscape:cy="18"
     inkscape:window-x="0"
     inkscape:window-y="0"
     inkscape:window-maximized="1"
     inkscape:current-layer="Layer_1" />
 
  <title
     id="title3925">sound02</title>
  <g
     id="Group_1308"
     data-name="Group 1308">
    <circle
       id="Ellipse_380-2"
       fill="#fff"
       data-name="Ellipse 380-2"
       class="cls-1"
       cx="18"
       cy="18"
       r="18" />
  </g>
  <g
     id="Group_1573"
     data-name="Group 1573">
    <path
       id="Path_1228"
       fill="#7fd1d8"
       transform="translate(-6 -6)"
       d="m 24,23.8 v 5.62 a 1.09,1.09 0 0 1 -0.63,1.08 1,1 0 0 1 -1.18,-0.2 l -4,-3.17 A 0.77,0.77 0 0 0 17.8,26.99 H 16.1 A 1,1 0 0 1 15,26 0.11,0.11 0 0 1 15,25.92 q 0,-2.16 0,-4.32 a 1,1 0 0 1 1,-1.07 h 0.09 c 0.57,0 1.15,0 1.72,0 a 0.84,0.84 0 0 0 0.48,-0.16 c 1.34,-1 2.66,-2.09 4,-3.14 a 1,1 0 0 1 1.1,-0.09 1,1 0 0 1 0.59,0.94 z m -0.79,0 c 0,-1.84 0,-3.68 0,-5.52 0,-0.16 0.06,-0.38 -0.15,-0.47 -0.21,-0.09 -0.34,0.07 -0.46,0.17 -1.35,1 -2.68,2.11 -4,3.15 a 0.87,0.87 0 0 1 -0.49,0.16 c -0.63,0 -1.26,0 -1.88,0 -0.28,0 -0.4,0.11 -0.4,0.38 v 4.13 c 0,0.28 0.13,0.4 0.42,0.39 0.45,0 0.9,0 1.34,0 a 1.84,1.84 0 0 1 1.4,0.5 c 1.24,1 2.5,2 3.76,3 a 0.37,0.37 0 0 0 0.32,0.07 c 0.08,0 0.13,-0.18 0.16,-0.29 a 1,1 0 0 0 0,-0.3 z m 6.56,-0.5 2.43,-2.42 c 0.16,-0.17 0.34,-0.35 0.6,-0.17 0.26,0.18 0.27,0.42 0,0.7 l -2.08,2.07 c -0.1,0.1 -0.22,0.19 -0.39,0.34 0.53,0.52 1,1 1.54,1.48 0.32,0.31 0.62,0.64 0.94,0.95 0.32,0.31 0.29,0.38 0.08,0.61 -0.21,0.23 -0.42,0.16 -0.64,-0.06 -0.74,-0.73 -1.48,-1.46 -2.2,-2.2 -0.18,-0.19 -0.28,-0.18 -0.45,0 l -2.2,2.2 c -0.23,0.23 -0.49,0.26 -0.64,0.07 a 0.43,0.43 0 0 1 0.06,-0.6 v 0 c 0.73,-0.72 1.44,-1.46 2.18,-2.17 0.2,-0.2 0.2,-0.31 0,-0.5 -0.73,-0.7 -1.44,-1.43 -2.16,-2.15 a 0.45,0.45 0 0 1 -0.15,-0.57 c 0.13,-0.25 0.4,-0.28 0.64,-0.05 0.74,0.72 1.48,1.46 2.21,2.19 a 1.66,1.66 0 0 1 0.23,0.28 z" />
  </g>
</svg>
