<svg id="Layer_1" data-name="Layer 1" xmlns="http://www.w3.org/2000/svg" viewBox="0 0 36 36">
    <defs>
        <style>
            .cls-1 {
                fill: #fff;
                fill-opacity: 0;
            }
            
            .cls-2 {
                fill: #7fd1d8;
            }
        </style>
    </defs>
    <title>sound02</title>
    <g id="Group_1308" data-name="Group 1308">
        <circle id="Ellipse_380-2" data-name="Ellipse 380-2" class="cls-1" cx="18" cy="18" r="18"  />
    </g>
    <g id="Group_1573" data-name="Group 1573">
        <path id="Path_1227" data-name="Path 1227" class="cls-2" d="M29.77,23.3l2.43-2.42c.16-.17.34-.35.6-.17s.27.42,0,.7l-2.08,2.07c-.1.1-.22.19-.39.34.53.52,1,1,1.54,1.48.32.31.62.64.94.95s.29.38.08.61-.42.16-.64-.06c-.74-.73-1.48-1.46-2.2-2.2-.18-.19-.28-.18-.45,0l-2.2,2.2c-.23.23-.49.26-.64.07a.43.43,0,0,1,.06-.6l0,0c.73-.72,1.44-1.46,2.18-2.17.2-.2.2-.31,0-.5-.73-.7-1.44-1.43-2.16-2.15a.45.45,0,0,1-.15-.57c.13-.25.4-.28.64-.05.74.72,1.48,1.46,2.21,2.19A1.66,1.66,0,0,1,29.77,23.3Z" transform="translate(-6 -6)" />
        <path id="Path_1228" data-name="Path 1228" class="cls-2" d="M24,23.8v5.62a1.09,1.09,0,0,1-.63,1.08,1,1,0,0,1-1.18-.2l-4-3.17a.77.77,0,0,0-.39-.14H16.1A1,1,0,0,1,15,26a.11.11,0,0,1,0-.08q0-2.16,0-4.32a1,1,0,0,1,1-1.07h.09c.57,0,1.15,0,1.72,0a.84.84,0,0,0,.48-.16c1.34-1,2.66-2.09,4-3.14a1,1,0,0,1,1.1-.09,1,1,0,0,1,.59.94Zm-.79,0c0-1.84,0-3.68,0-5.52,0-.16.06-.38-.15-.47s-.34.07-.46.17c-1.35,1-2.68,2.11-4,3.15a.87.87,0,0,1-.49.16c-.63,0-1.26,0-1.88,0-.28,0-.4.11-.4.38V25.8c0,.28.13.4.42.39.45,0,.9,0,1.34,0a1.84,1.84,0,0,1,1.4.5c1.24,1,2.5,2,3.76,3a.37.37,0,0,0,.32.07c.08,0,.13-.18.16-.29a1,1,0,0,0,0-.3Z" transform="translate(-6 -6)" />
    </g>
</svg>