<?xml version="1.0" encoding="utf-8"?>
<!-- Generator: Adobe Illustrator 23.0.1, SVG Export Plug-In . SVG Version: 6.00 Build 0)  -->
<svg version="1.1" id="Layer_1" xmlns="http://www.w3.org/2000/svg" xmlns:xlink="http://www.w3.org/1999/xlink" x="0px" y="0px"
	 viewBox="0 0 252.99 276.17" style="enable-background:new 0 0 252.99 276.17;" xml:space="preserve">
<style type="text/css">
	.st0{clip-path:url(#SVGID_2_);fill:#DC6C85;}
</style>
<g>
	<defs>
		<rect id="SVGID_1_" width="252.99" height="276.17"/>
	</defs>
	<clipPath id="SVGID_2_">
		<use xlink:href="#SVGID_1_"  style="overflow:visible;"/>
	</clipPath>
	<path class="st0" d="M321.23,39.03c26.65,12.98,52.24,32.17,62.14,60.59c3.42,10.25,3.55,21.3,0.38,31.63
		c-2.54,7.94-6.04,14.97-11.45,20.66c-5.93,6.28-12.07,12.45-18.17,18.68c-16.41,13.82-30.33,30.34-41.19,48.84
		c-5.34,9.14-9.95,18.69-13.79,28.55c-4.1,10.42-7.97,20.88-11.04,31.56c-1.53,5.34-2.86,10.74-3.92,16.22
		c-1.14,5.4-1.74,10.91-1.78,16.43c1.44,47.28-13.97,96.29-54.38,123.04c-25.08,15.97-58.14,14.46-83.28-0.36
		c-7.06-3.85-13.98-8.16-20.79-12.77c-27.24-18.43-52.79-41.71-79.26-60.54C14.52,339.44-7.55,299.17,2.43,260.89
		c4.26-15.19,14.08-28.22,27.5-36.5c31.8-20.08,68.83-36.49,87.77-70.63c13.65-24.57,7.8-52.68,8.31-80.77
		c0.44-40.14,31.27-71.01,73.73-72.88c27.12-1.24,52.7,7.83,77.09,18.47C292.1,24.34,306.93,31.18,321.23,39.03z"/>
</g>
</svg>
