<svg xmlns="http://www.w3.org/2000/svg" width="93.99" height="79.647" viewBox="0 0 93.99 79.647"><g transform="translate(-7291.042 -3464.449)"><path d="M19.1,54.346C29.674,42.309,36.636,34.184,47.161,22.2A15.547,15.547,0,0,0,42.241,24c-10.279,6.5-18,7.428-21.148,16.265L17.3,50.839A2.729,2.729,0,0,0,19.1,54.346Z" transform="translate(7283.483 3464.411)" fill="#fff"/><path d="M25.381,31.142c-.233.558-.14.6-.279,2.325-.047.186-.047.419-.093.7a4.735,4.735,0,0,1-5,4.414h-.186a5.24,5.24,0,0,1-.837-.14l.419-.465c.419-.419.674-.786,1.093-1.251Z" transform="translate(7290.189 3497.047)" fill="#fff"/><path d="M25.381,31.142c-.233.558-.14.6-.279,2.325l-5.093,5.111h-.186a5.24,5.24,0,0,1-.837-.14l.419-.465Z" transform="translate(7290.189 3497.047)" fill="#b85a70"/><path d="M32.3,54.041s2.53.856,7.883-2.553,8.762-6.567,12.414-6.325c3.023.2,2.037-13.3,1.614-17.934a1.188,1.188,0,0,0-1.539-1.042c-3.074.972-10.758,2.753-17.86-.865C25.67,20.661,32.3,54.041,32.3,54.041Z" transform="translate(7330.322 3474.167)" fill="#fff"/><path d="M26.448,44.936a4.608,4.608,0,0,1-5.2-4.7v-6.7l9.66-4.786v7.158S31.787,44.708,26.448,44.936Z" transform="translate(7298.43 3488.332)" fill="#fff"/><path d="M33.755,39.611c-.223,2.512-1.149,5.814-4.325,5.949a4.516,4.516,0,0,1-5.116-4.6l-.219-6.279-.177-6.186L33.8,29.7v7.023A14.884,14.884,0,0,1,33.755,39.611Z" transform="translate(7308.196 3487.383)" fill="#fff"/><path d="M21.243,33.781,30.9,28.99v6.651a40.089,40.089,0,0,1-9.66,2.372Z" transform="translate(7298.43 3489.19)" fill="#b85a70"/><path d="M33.755,39.846c-3.884-2.465-6.749-5.907-9.66-4.93l-.177-6.186L33.8,29.939l.047,7.028A17.915,17.915,0,0,1,33.755,39.846Z" transform="translate(7308.196 3488.241)" fill="#b85a70"/><g transform="translate(7291.042 3464.449)"><path d="M15.114,95.5a1.713,1.713,0,0,0,.088.907c.056.153,0,.177.135.326.042.033-.065-.014.019.014a1.422,1.422,0,0,0,.493.242A1.635,1.635,0,0,0,16.923,97l4.418-1.781,7.293-2.86,1.512-.623c.074-.047.2-.1.274-.144l.074-.088a.887.887,0,0,0,.228-.181l.037-.042,1.27-1.437L84.321,29.89a6.71,6.71,0,0,0-.953-9.762l-1.442-1.139a7.416,7.416,0,0,0-10.121.986l-53.6,61.468-.177.3L18,81.823c-.033.079-.1.2-.135.288l-1.73,8.558ZM71.6,25.085l2.674-3.125a4.04,4.04,0,0,1,5.572-.544l1.442,1.139A3.683,3.683,0,0,1,82.7,25.122a3.774,3.774,0,0,1-.884,2.791l-2.456,2.823-.223.26a7.559,7.559,0,0,0-.8-1.353,8.448,8.448,0,0,0-2.414-2.6A11.373,11.373,0,0,0,71.6,25.085Z" transform="translate(-15.087 -17.436)" fill="#edbec9"/><path d="M15.114,46.58a1.713,1.713,0,0,0,.088.907c.056.153,0,.177.135.326.042.033-.065-.014.019.014a.708.708,0,0,0,.493.242,1.635,1.635,0,0,0,1.074.014L21.342,46.3l7.293-2.86,1.512-.623c.074-.047.2-.1.274-.144l.074-.088a.887.887,0,0,0,.228-.181l.037-.042a28.408,28.408,0,0,0-1.814-3.325,19.756,19.756,0,0,0-9.288-8.2l-1.451,1.688-.177.3L18,32.906c-.033.079-.1.2-.135.288l-1.73,8.558Z" transform="translate(-15.087 31.481)" fill="#fff"/><path d="M21.452,83.44s1.516-4.786-4.967-4.721c1.6-4.521,50.677-60.03,50.677-60.03L73.05,26.07Z" transform="translate(-9.984 -12.867)" fill="#edbec9"/><path d="M21.153,82.169c.079-.065.191-.1.274-.167l.079-.065c.084-.06.135-.126.214-.186l.028-.033L70.83,25.553l1.153-1.344L67.44,20.06l-1.512,1.312A90.781,90.781,0,0,0,52.919,35.706L32.645,63.044C30.385,65.933,22.083,73.463,19.3,75.886l-1.744,2.549A3.228,3.228,0,0,1,21.153,82.169Z" transform="translate(-6.085 -7.862)" fill="#edbec9"/><path d="M15.724,76.614c2.963-.377,3.567,1.637,3.567,1.637L68.141,20.876l-2.065-2.037L64.69,20.458,15.9,76.344Z" transform="translate(-12.762 -12.32)" fill="#fff"/><path d="M15.114,38.011a1.713,1.713,0,0,0,.088.907c.056.154,0,.177.135.326.042.033-.065-.014.019.014a.708.708,0,0,0,.493.242,1.635,1.635,0,0,0,1.074.014l4.418-1.781A5.8,5.8,0,0,0,20.2,34.9c-1.153-1.633-2.619-1.7-4.065-1.716Z" transform="translate(-15.087 40.05)" fill="#b85a70"/><path d="M15.724,76.614c2.963-.377,3.567,1.637,3.567,1.637L68.141,20.876l-2.065-2.037L64.69,20.458,15.9,76.344Z" transform="translate(-12.762 -12.32)" fill="#edbec9" opacity="0.54"/><path d="M26.252,25.575A16.994,16.994,0,0,1,39.07,35.128l2.093-2.442L42.6,31l.967-1.13a6.723,6.723,0,0,0-.949-9.735l-1.451-1.144a7.406,7.406,0,0,0-10.13.991l-1.149,1.344L28.4,23.068Z" transform="translate(25.675 -17.437)" fill="#b85a70"/></g><path d="M57.423,23.106,45.34,37.022c-6.46,7.432-24.934,14.106-25.153,14.209-2.126.833-.963,6.228,2.925,6.567,4.116.358,10.293-1.349,14.925-3.846,2.777-1.5,4.646-2.786,8.637.163a26.044,26.044,0,0,0,14.246,5.474l11.134.977,2.512-28.725Z" transform="translate(7290.742 3467.708)" fill="#fff"/></g></svg>