<svg xmlns="http://www.w3.org/2000/svg" width="920.385" height="368.926" viewBox="0 0 920.385 368.926"><defs><style>.a{fill:#95339e;}.b{fill:#adcb37;}.c{fill:#50c6d6;}.d{fill:#005ea8;}.e{fill:#925ea8;}.f{fill:#e3f5f6;}.g{fill:#dc6b84;}.h{fill:#fcdb02;}.i{fill:#47a8a8;font-size:28px; font-family: "BPG Arial", font-family: "BPG Arial";}.j{fill:#e6bdc5;}.k{fill:#7fd1d8;}.l{fill:#a6e4f5;}.m{fill:#fdfefe;}.n{fill:#c6e5e8;}.o,.r{fill:#f6da9b;}.p{fill:#d63e23;}.q{fill:#f7cf43;}.r{fill-rule:evenodd;}.s{fill:#33322e;}.t{fill:#ebdddb;}.u{fill:#ca7740;}.v{fill:#f8d24b;}.w{fill:#e5d7d1;opacity:0.31;}.ah,.x{fill:none;}.y{fill:#d6d6d6;}.ab,.z{opacity:0.13;}.aa{fill:#444343;}.ac{fill:#164b55;}.ad{fill:#d6bf87;}.ae{fill:#438591;}.af{opacity:0.15;}.ag{fill:#fff;}.ah{stroke:#f8d24b;stroke-linecap:round;stroke-linejoin:round;}.ai{fill:#fe674c;}.aj{fill:#274e55;}.ak,.al{opacity:0.3;}</style></defs><g transform="translate(-211.48 -225.519)"><path class="a" d="M958.23,416.422l-1.059.162q-.321,5.4-.644,10.809l.859.092Q957.807,421.953,958.23,416.422Z"/><path class="a" d="M962.585,351.767l-.994.049c-1.12,2.926-2.217,5.863-3.368,8.778a30.1,30.1,0,0,0-1.5,18.2c1.01-.466.675-1.143.619-1.614a34.871,34.871,0,0,1,3.385-19.85A42.493,42.493,0,0,0,962.585,351.767Z"/><path class="a" d="M958.073,395.219c.552,5.842-.9,11.688.15,17.541,1.4-6.286.752-12.7,1.08-19.043-.128-.863-.256-1.728-.414-2.8C957.76,392.362,958.476,393.889,958.073,395.219Z"/><path class="b" d="M685.243,325.752c-.151-.024-.3-.048-.445-.064l-.581-.1C684.559,325.648,684.9,325.7,685.243,325.752Z"/><path class="b" d="M684.77,326.058c-.032-.262-.056-.517-.08-.771,0,.008.008.024.008.031Q684.734,325.689,684.77,326.058Z"/><path class="c" d="M685.585,325.808c-.382-.064-.756-.12-1.129-.175l-.581-.1c.342.056.684.1,1.026.159C685.124,325.728,685.354,325.768,685.585,325.808Z"/><path class="c" d="M685.271,325.752c-.358-.056-.716-.111-1.082-.159.151.024.311.04.47.063Z"/><path class="c" d="M684.77,326.058c-.032-.262-.056-.517-.08-.771,0,.008.008.024.008.031Q684.734,325.689,684.77,326.058Z"/><path class="d" d="M684.77,326.058c-.032-.262-.056-.517-.08-.771,0,.008.008.024.008.031Q684.734,325.689,684.77,326.058Z"/><path class="e" d="M684.77,326.058c-.032-.262-.056-.517-.08-.771,0,.008.008.024.008.031Q684.734,325.689,684.77,326.058Z"/><path class="f" d="M684.751,325.509c.008.112.024.215.032.326C684.64,325.748,684.656,325.645,684.751,325.509Z"/><path class="f" d="M684.9,325.7c.223.032.453.072.684.112-.382-.064-.756-.12-1.129-.175l-.581-.1C684.217,325.593,684.559,325.64,684.9,325.7Z"/><path class="f" d="M684.659,325.656l.612.1c-.358-.056-.716-.111-1.082-.159C684.34,325.617,684.5,325.633,684.659,325.656Z"/><path class="f" d="M684.77,326.058c-.032-.262-.056-.517-.08-.771,0,.008.008.024.008.031Q684.734,325.689,684.77,326.058Z"/><path class="f" d="M684.771,325.521c.056.151.04.247-.111.3C684.7,325.72,684.739,325.617,684.771,325.521Z"/><path class="c" d="M852.776,538.119c1.487-2.863,2.4-4.561,3.259-6.282,3.093-6.162,3.086-6.157,9.952-5.22,1.865.254,3.739.442,5.732.674-.137-.631-.113-.936-.253-1.1-2.629-3.12-7.7-5.144-7.843-9.068-.133-3.521,2.982-7.164,5.052-11.583-3.36,1.678-6.111,2.664-8.4,4.293-2.938,2.088-4.92,1.352-7.094-1.049-1.841-2.034-4-3.778-6.766-6.339.676,4.259,1.078,7.573,1.764,10.826a3.081,3.081,0,0,1-1.9,3.964c-2.947,1.47-5.781,3.168-9.471,5.218,4.385.8,7.924,1.5,11.484,2.062,2.058.327,2.979.923,2.891,3.449C851.073,530.908,852.051,533.891,852.776,538.119Z"/><path class="g" d="M1082.3,250.271c-.472.386-.918.72-1.328,1.092-2.6,2.362-5.158,4.775-7.809,7.079-1.1.956-1.156,1.637-.123,2.7,2.448,2.518,4.851,5.086,7.143,7.746,1.033,1.2,1.658,1.034,2.7.038,2.608-2.492,5.32-4.875,8.022-7.266.735-.65,1.145-1.118.259-2.037-2.7-2.8-5.3-5.681-7.953-8.525C1082.952,250.825,1082.654,250.594,1082.3,250.271Z"/><path class="g" d="M540.014,487.439c.343-.276.688-.528,1.005-.813,2.627-2.36,5.219-4.762,7.889-7.073,1-.866.967-1.45.062-2.379-2.4-2.465-4.733-5-7.019-7.568-.75-.844-1.186-.92-2.059-.109-2.645,2.458-5.393,4.806-8.11,7.186-.613.537-.964.988-.229,1.768,2.609,2.767,5.159,5.589,7.737,8.385A8.207,8.207,0,0,0,540.014,487.439Z"/><path class="h" d="M772.08,269.228c.342-.275.688-.528,1.005-.812,2.627-2.36,5.219-4.762,7.889-7.073,1-.866.967-1.45.062-2.379-2.4-2.465-4.733-5-7.019-7.568-.75-.844-1.186-.92-2.059-.109-2.645,2.458-5.393,4.806-8.11,7.186-.613.537-.964.987-.229,1.768,2.609,2.767,5.159,5.589,7.737,8.385A8.047,8.047,0,0,0,772.08,269.228Z"/><text style="font-family: ALK Sanet" class="i" transform="translate(666.256 352.595)"><tspan x="-50.094" y="0">ყოჩაღ!</tspan><tspan x="-190.914" y="33.6">სავარჯიშო შესრულებულია</tspan></text><path class="a" d="M995.976,542.841c1.788-6.959,5.382-13.454,5.71-20.794-1.057,7.266-5.357,13.561-6.475,20.792Z"/><circle class="j" cx="4.567" cy="4.567" r="4.567" transform="translate(1118.595 337.846)"/><path class="g" d="M1058.367,427c-3.183-2.121-7.015-2.264-11.32-3.188a15.5,15.5,0,0,0,5.905-6.066c.617-1.033,1.075-2.018-.535-2.342-7.254-1.461-12.9-6.062-19.07-9.642-1.072-4.029-.876-8.271-2.438-12.251-5.525-14.082-16.889-21.911-32.008-21.816-1.306.008-2.612-.009-3.918-.014-7.964-8.247-11.818-17.989-10.747-29.524,2.029-9.419,6.627-17.132,14.834-22.486,5.523-3.6,11.761-4.66,18.144-5.25,9.7.782,17.762,4.942,24.629,11.741a46.543,46.543,0,0,0,6.712,5.426c7.491,5.052,15.168,4.532,21.983-1.358,2.478-2.141,4.869-4.383,7.327-6.547,13.311-11.718,32.73-11.194,44.762,1.2,12.268,12.635,12.318,32,.15,45.078-8.126,8.733-16.287,17.462-25.407,25.151-9.954,8.392-19.316,17.9-32.849,20.646-1.925.39-1.286,1.387-.948,2.566.764,2.659,3.388,3.836,5.164,6.254-3.541.4-6.611.863-9.377,2.375ZM1016.139,322.1a3.954,3.954,0,0,0,3.535,4.766,15.869,15.869,0,0,1,9.667,5.379c1.722,1.93,3.752,2.555,5.8.737,2.078-1.842,2.036-3.993.3-6.221-3.194-4.1-10.042-7.907-14.716-8.038C1018.443,318.837,1016.457,319.66,1016.139,322.1Zm105.823,9.038c-2.8-5.255-7.366-8.489-12.91-10.227-2.292-.719-4.955-.59-5.744,2.47-.685,2.657.343,4.5,3.212,5.317,3.553,1.017,6.141,3.487,8.2,6.445.912,1.31,1.872,2.156,3.325,2.019C1121.415,337.175,1123.478,333.994,1121.962,331.142Zm-82.018,2.755a3.8,3.8,0,0,0-4.284,3.993c-.045,2.672,1.58,4.563,4.3,4.462a4.055,4.055,0,0,0,4.1-4.267C1044.089,335.284,1042.411,334,1039.944,333.9Zm87.385,8.7c-.07-2.348-1.3-4.387-4.032-4.4a3.967,3.967,0,0,0-4.3,4.1c-.117,2.638,1.458,4.024,3.977,4.327C1125.642,346.521,1127.407,345.223,1127.329,342.6Z"/><path class="h" d="M976.639,343.948c-2.164.7-5.6-.855-6.335,1.481-.764,2.42,2.707,3.736,4.495,6.189-4.814-.09-9,3.435-13.649.209-1.292-.9-3.036-.567-4.6-.492l-.8-.824a11.634,11.634,0,0,0,4.931-6.231c-43.69-5.819-63.1-59.248-34.5-92.3,14.745-17.035,40.451-23.09,61.785-14.568,14.349,5.732,24.258,16.056,30.882,29.789a71.039,71.039,0,0,1,4.239,18.868,61.415,61.415,0,0,1-5.871,28.345c-6.383.59-12.621,1.646-18.144,5.25-8.207,5.354-12.8,13.067-14.834,22.486C981.7,342.735,979.107,343.15,976.639,343.948Zm6.587-92.845a33.849,33.849,0,0,1,18.055,14.994c1.388,2.326,3.389,3.4,5.922,1.8,2.495-1.575,2.437-3.836,1.062-6.153a40.979,40.979,0,0,0-22.223-18.383c-3.2-1.121-5.808.618-5.831,3.632A3.988,3.988,0,0,0,983.226,251.1Zm26.621,28.337a4.392,4.392,0,0,0-.038-8.779c-2.649-.088-4.282,1.611-4.477,4.589C1005.647,277.779,1007.093,279.518,1009.847,279.44Z"/><path class="k" d="M1033.347,405.758c-1.072-4.029-.876-8.271-2.438-12.251-5.525-14.082-16.889-21.911-32.008-21.816-1.306.008-2.612-.009-3.918-.014-16.492,3.471-26.3,14.422-28.208,30.983-2.486,21.608-1.683,43.2.135,64.772a32.865,32.865,0,0,0,24.139,28.948c4.925,1.318,5.053,1.638,2.136,5.822-.589.845-1.327,1.587-2.086,2.482,4.172,2.425,8.625,2.073,13.019,1.543,1.721-.208,2.929-1.288,1.432-3.3a12.639,12.639,0,0,1-.944-2.132c-1.257-2.607-1.015-4.092,2.449-3.882,6.386.383,12.172-2.89,16.1-7.782,6.584-8.2,9.6-19.857,10.272-30.172C1034.59,441.214,1035.483,423.491,1033.347,405.758Z"/><path class="a" d="M1055.005,491.6l-1.059.163q-.32,5.4-.643,10.808l.858.092Q1054.584,497.133,1055.005,491.6Z"/><path class="a" d="M393.6,491.589l.253-.517-.278.492Z"/><path class="a" d="M1059.36,426.947l-.993.049c-1.121,2.927-2.217,5.863-3.368,8.778a30.092,30.092,0,0,0-1.5,18.2c1.01-.466.674-1.144.618-1.615a34.867,34.867,0,0,1,3.386-19.849A42.477,42.477,0,0,0,1059.36,426.947Z"/><path class="a" d="M1054.848,470.4c.552,5.842-.9,11.688.15,17.541,1.4-6.285.753-12.7,1.08-19.043-.128-.863-.255-1.728-.414-2.8C1054.536,467.542,1055.252,469.07,1054.848,470.4Z"/><path class="l" d="M389.694,322.285q.371-.437.742-.874Q390.065,321.847,389.694,322.285Z"/><path class="l" d="M932.208,338.039l.787.14Z"/><path class="j" d="M1020.726,318.724c-2.283.113-4.269.936-4.587,3.38a3.954,3.954,0,0,0,3.535,4.766,15.869,15.869,0,0,1,9.667,5.379c1.722,1.93,3.752,2.555,5.8.737,2.078-1.842,2.036-3.993.3-6.221C1032.25,322.661,1025.4,318.858,1020.726,318.724Z"/><path class="j" d="M1118.045,337.166c3.37.009,5.433-3.172,3.917-6.024-2.8-5.255-7.366-8.489-12.91-10.227-2.292-.719-4.955-.59-5.744,2.47-.685,2.657.343,4.5,3.212,5.317,3.553,1.017,6.141,3.487,8.2,6.445C1115.632,336.457,1116.592,337.3,1118.045,337.166Z"/><path class="j" d="M1044.067,338.085c.022-2.8-1.656-4.081-4.123-4.188a3.8,3.8,0,0,0-4.284,3.993c-.045,2.672,1.58,4.563,4.3,4.462A4.055,4.055,0,0,0,1044.067,338.085Z"/><path class="m" d="M980.213,246.994a3.985,3.985,0,0,0,3.013,4.109,33.849,33.849,0,0,1,18.055,14.994c1.388,2.326,3.389,3.4,5.922,1.8,2.495-1.575,2.437-3.836,1.062-6.153a40.979,40.979,0,0,0-22.223-18.383C982.84,242.243,980.234,243.982,980.213,246.994Z"/><path class="m" d="M1005.332,275.25c.315,2.529,1.761,4.268,4.515,4.19a4.392,4.392,0,0,0-.038-8.779C1007.16,270.573,1005.527,272.272,1005.332,275.25Z"/><path class="n" d="M1026.74,399.961a4.975,4.975,0,0,0-.59-3.135,35.912,35.912,0,0,0-16.969-16.31c-2.741-1.251-5.26-1.3-6.607,1.778-1.33,3.047.72,4.486,3.237,5.611a26.7,26.7,0,0,1,13.262,12.863c.95,1.9,2.333,3.207,4.68,2.675A3.408,3.408,0,0,0,1026.74,399.961Z"/><path class="n" d="M1022.023,409.228c-.21,2.727,1.2,4.261,3.454,4.685a3.682,3.682,0,0,0,4.5-3.359,3.807,3.807,0,0,0-3.381-4.534C1024.13,405.678,1022.763,407.209,1022.023,409.228Z"/><path class="o" d="M286.721,566.484s-14.777,7.4-14.51,10.743c.445,6.012,3.538,28.859-5.917,6.779-6.289-10.606-3.431-11.061-1.447-12.3,1.622-1.011,13.832-8.862,18.246-11.7l1.587-1.02Z"/><path class="p" d="M274.68,564.349c.9-.623,2.589,8.358,4.411,8.576,0,0-6.024,2.117-6.408,3.3s3.826,16.294-.371,18.111-10.749-18.763-11.349-20.165S272.915,565.574,274.68,564.349Z"/><path class="o" d="M244.843,531.5s-16.509-.773-17.912,2.272c-2.553,5.46-11.032,26.9-8.476,3.017-.3-12.327,2.419-11.325,4.754-11.433,1.908-.088,16.4-.961,21.638-1.278l1.882-.114Z"/><path class="p" d="M235.392,523.558c1.088-.1-1.831,8.556-.348,9.638,0,0-6.29-1.1-7.2-.261s-4.635,16.083-9.185,15.614-.2-21.622-.032-23.139S233.254,523.763,235.392,523.558Z"/><path class="q" d="M316.187,335.277s20.964-1.881,36.336,7.932,2.289,29.285,2.289,29.285-33.14-21.906-34.064-23.123S316.187,335.277,316.187,335.277Z"/><path class="r" d="M235.29,280.617c-.045-.68,1.142-8.542.053-12.093s-3.048-8.725-3.272-10.7c-.262-2.32-1.3-2.506-1.234.263a36.572,36.572,0,0,0,.7,6.083c.126.348-.49-2-.983-4.633-.524-2.8-.945-5.887-1.457-5.826-.991.117.056,8.358.452,9.723a35.488,35.488,0,0,1-1-3.617c-.363-1.669-.545-3.677-1.011-3.9-.735-.343-.663,4.22.221,7.652-.082.1-.677-.882-1.453-5.029-.078-.417-.647-1.325-.712.171-.137,3.149-.428,4.493,1.028,8.378,1.419,3.788,3.885,7.6,4.088,10.661Z"/><path class="r" d="M235.683,270.311s1.852-4.145,1.018-7.6a3.5,3.5,0,0,1,.019-2.6c.033-1.292-1.563.6-1.41,2.457.125,1.508-1.849,3.19-2,4.191s-.056,3.765.5,4.235S235.683,270.311,235.683,270.311Z"/><path class="r" d="M361.264,265.279c-.352-.584-5.818-6.358-6.952-9.895s-2.484-8.9-3.428-10.649c-1.11-2.054-.362-2.8,1.163-.489a36.544,36.544,0,0,1,2.9,5.389c.1.358-.744-1.924-1.841-4.363-1.167-2.593-2.587-5.372-2.133-5.614.881-.47,4.729,6.891,5.185,8.237a35.707,35.707,0,0,0-1.248-3.538c-.656-1.577-1.654-3.329-1.4-3.774.407-.7,2.955,3.084,4.19,6.406.125.035.052-1.111-1.68-4.957-.174-.387-.226-1.458.682-.267,1.911,2.506,2.918,3.443,3.943,7.463,1,3.92,1.154,8.457,2.736,11.085Z"/><path class="s" d="M346.62,257.366l-.221.147-.723-1.008h0l-.1-.148-.111-.155h0l-.664-.946.212-.161a39.87,39.87,0,0,1,5.407-4.309c2.086-1.184,20.428-13.34,20.428-13.34a.5.5,0,0,1,.623.1,1.14,1.14,0,0,1,.422.6.5.5,0,0,1-.113.62s-17.542,13.286-19.35,14.862A43.157,43.157,0,0,1,346.62,257.366Z"/><path class="t" d="M346.214,257.636a.089.089,0,0,0-.144.044.74.74,0,0,1-.374.535c-.149.106-.426-.112-.434.106s-.4.387-.4.387-5.941,3.655-6.045,3.748-.145,0-.145,0c-.14-.19-.519-.731-.586-.826s-.431-.6-.565-.8c0,0-.077-.07.045-.138s5.515-4.5,5.515-4.5.289-.311.5-.247.094-.269.243-.374a.739.739,0,0,1,.628-.176.089.089,0,0,0,.09-.122.312.312,0,0,1,.131-.3,9.23,9.23,0,0,1,.9,1.145h0l.1.135.1.134h0a9.188,9.188,0,0,1,.784,1.226A.312.312,0,0,1,346.214,257.636Z"/><path class="u" d="M330.008,264.437c-.073.106,0,.083,0,0Z"/><path class="v" d="M338.779,262.8a1.869,1.869,0,0,0-1.335-2.357,3.168,3.168,0,0,0-2.011,1.054c-1.125,1.073-3.085,2.6-3.456,3.181a6.349,6.349,0,0,0-.735,1.43v.008a1.163,1.163,0,0,1,.148-.169.67.67,0,0,1,.541-.247c.018,0,.038-.009.058-.013.113-.029.27-.054.43-.08.188-.031.383-.059.51-.09a1.721,1.721,0,0,0,.51-.271s.145.068-.112.251a3.431,3.431,0,0,1-.388.247,6.162,6.162,0,0,1,.647-.252c.175-.043,1.394-.617,2.447-1.13A18.511,18.511,0,0,0,338.779,262.8Z"/><path class="w" d="M337.7,261.441c-.279-.08-1.111.426-2.062.961a12.723,12.723,0,0,0-2.395,2.088,4.738,4.738,0,0,0-.876,1.087c.018,0,.037-.009.058-.013.113-.029.269-.054.429-.08.43-.454,1.378-1.418,1.992-2.131A13.691,13.691,0,0,1,337.7,261.441Z"/><path class="x" d="M346.62,257.366l-.143.1c.05.086.077.142.068.152a.312.312,0,0,1-.331.023.089.089,0,0,0-.144.044.74.74,0,0,1-.374.535c-.149.106-.426-.112-.434.106s-.4.387-.4.387-5.363,3.3-5.987,3.708a.693.693,0,0,1-.1.387,18.511,18.511,0,0,1-2.746,1.562c-1.053.513-2.272,1.087-2.447,1.13a6.162,6.162,0,0,0-.647.252,3.431,3.431,0,0,0,.388-.247c.257-.183.112-.251.112-.251a1.721,1.721,0,0,1-.51.271c-.127.031-.322.059-.51.09-.16.026-.317.051-.43.08-.02,0-.04.01-.058.013a.67.67,0,0,0-.541.247,1.163,1.163,0,0,0-.148.169v-.008a6.349,6.349,0,0,1,.735-1.43c.371-.581,2.331-2.108,3.456-3.181a3.166,3.166,0,0,1,2.01-1.054,2.225,2.225,0,0,1,.3.111c.945-.752,5.339-4.361,5.339-4.361s.289-.311.5-.247.094-.269.243-.374a.739.739,0,0,1,.628-.176.089.089,0,0,0,.09-.122.312.312,0,0,1,.131-.3c.017-.007.1.083.208.22l.129-.1a39.87,39.87,0,0,1,5.407-4.309c2.086-1.184,20.428-13.34,20.428-13.34a.5.5,0,0,1,.623.1,1.14,1.14,0,0,1,.422.6.5.5,0,0,1-.113.62s-17.542,13.286-19.35,14.862A43.157,43.157,0,0,1,346.62,257.366Z"/><path class="x" d="M331.242,266.119c0,.083-.074.106,0,0Z"/><path class="y" d="M338.079,261.027"/><path class="z" d="M371.885,238.114a.5.5,0,0,0-.622-.1s-18.343,12.156-20.429,13.34a39.906,39.906,0,0,0-5.406,4.309l-.13.1c-.11-.137-.191-.227-.208-.22a.31.31,0,0,0-.13.3.09.09,0,0,1-.09.122.74.74,0,0,0-.629.176c-.149.105-.035.438-.243.374s-.5.247-.5.247-4.394,3.609-5.339,4.361a2.349,2.349,0,0,0-.3-.112,3.175,3.175,0,0,0-2.011,1.055c-1.125,1.073-3.084,2.6-3.456,3.181-.082.127-.164.261-.241.395-.058.011-.112.022-.158.034-.02,0-.04.01-.058.013a.67.67,0,0,0-.541.247,1.231,1.231,0,0,0-.148.168V266.1a6.374,6.374,0,0,1,.734-1.429c.372-.582,2.332-2.108,3.457-3.181a3.172,3.172,0,0,1,2.01-1.055,2.374,2.374,0,0,1,.3.112c.945-.752,5.339-4.362,5.339-4.362s.289-.31.5-.246.094-.269.243-.374a.739.739,0,0,1,.628-.176.089.089,0,0,0,.09-.122.312.312,0,0,1,.131-.3c.017-.008.1.083.208.22l.129-.1a39.907,39.907,0,0,1,5.406-4.309c2.087-1.184,20.429-13.34,20.429-13.34a.5.5,0,0,1,.623.1,1.421,1.421,0,0,1,.26.262,1.4,1.4,0,0,1,.158.324Z"/><path class="aa" d="M343.866,254.387l-.258.048-.265-1.2h0l-.037-.174-.04-.184h0l-.235-1.119.255-.063a39.4,39.4,0,0,1,6.591-1.811c2.357-.264,23.759-4.17,23.759-4.17s.314-.08.527.332a1.388,1.388,0,0,1,.135.34,1.408,1.408,0,0,1,.017.364c-.025.463-.344.52-.344.52s-21.114,5.244-23.371,5.973A42.606,42.606,0,0,1,343.866,254.387Z"/><path class="v" d="M333.719,258.055c.409-.154.916-.392.916-.392l-1.413-5.185s-1.649.193-1.965.17a32.568,32.568,0,0,0-3.276.471c-.226.07-.352-.037-.354.432,0,.088,0,.2.011.332,0,.021,0,.042.005.062a7.1,7.1,0,0,0,.257,1.453l.992-.214-.981.341s.164.717.184.857.477.209.812.137,1.326-.481,1.419-.468a13.338,13.338,0,0,1-1.5.615c-.229.076-.63.162-.63.162s.055.247.122.557h0c.022.1.046.207.068.315.09.413.18.83.193.9a2.244,2.244,0,0,0,.241.506s1.282-.2,1.707-.277S333.31,258.208,333.719,258.055Z"/><path class="t" d="M333.231,255.36a.011.011,0,0,1-.009-.007c0-.015-.008-.043-.015-.083s-.017-.067-.02-.082,0-.007,0-.011c-.1-.635-.4-2.662-.4-2.662s1.483-.117,1.691-.127,5-.313,5.461-.342a8.932,8.932,0,0,1,1.51.008c.311.056.1.006.523-.182a1.251,1.251,0,0,1,.837.021.928.928,0,0,1,.413-.2,9.512,9.512,0,0,1,.607,1.272l.008.036a9.607,9.607,0,0,1-.03,1.41.922.922,0,0,1-.46-.016,1.245,1.245,0,0,1-.754.365c-.465,0-.292-.131-.551.048a8.891,8.891,0,0,1-1.374.629c-.429.162-4.924,1.858-5.118,1.935s-1.594.579-1.594.579S333.4,255.981,333.231,255.36Z"/><path class="w" d="M330.125,253.816s-1.5-.165-2.5-.265c0,.088,0,.2.011.332,0,.021,0,.042.005.062Z"/><path class="x" d="M330.522,258.833c-.425.08-1.707.277-1.707.277a2.244,2.244,0,0,1-.241-.506c-.013-.073-.1-.49-.193-.9-.022-.108-.046-.214-.068-.315h0c-.067-.31-.122-.557-.122-.557s.4-.086.63-.162a13.338,13.338,0,0,0,1.5-.615c-.093-.013-1.084.4-1.419.468s-.792,0-.812-.137-.184-.857-.184-.857l.981-.341-.992.214a7.1,7.1,0,0,1-.257-1.453c0-.02,0-.041-.005-.062-.008-.135-.012-.244-.011-.332,0-.469.128-.362.354-.432a32.568,32.568,0,0,1,3.276-.471c.213.015,1.029-.067,1.54-.123v-.01l.307-.024.119-.013,0,0c.455-.036,1.128-.087,1.263-.094.209-.01,5-.313,5.461-.342a8.932,8.932,0,0,1,1.51.008c.311.056.1.006.523-.182a1.251,1.251,0,0,1,.837.021.928.928,0,0,1,.413-.2c.005,0,.012.006.02.015l.036-.009a39.4,39.4,0,0,1,6.591-1.811c2.357-.264,23.759-4.17,23.759-4.17s.314-.08.527.332a1.388,1.388,0,0,1,.135.34,1.408,1.408,0,0,1,.017.364c-.025.463-.344.52-.344.52s-21.114,5.244-23.371,5.973a42.606,42.606,0,0,1-6.735,1.142l-.043.008-.007.014a.5.5,0,0,1-.185.022l-.023,0v-.005a.574.574,0,0,1-.251-.037,1.245,1.245,0,0,1-.754.365c-.465,0-.292-.131-.551.048a8.891,8.891,0,0,1-1.374.629c-.429.162-4.924,1.858-5.118,1.935-.156.061-1.1.4-1.454.529-.126.054-.261.109-.386.156C333.31,258.208,330.947,258.755,330.522,258.833Z"/><g class="ab"><path d="M328.2,256.45l.921-.2-.717.249A.9.9,0,0,1,328.2,256.45Z"/><path d="M328.318,257.409l-.012-.055v0c-.067-.31-.122-.557-.122-.557h0C328.231,256.993,328.3,257.281,328.318,257.409Z"/><path d="M329.137,257.586c.335-.072,1.326-.48,1.419-.467a13.532,13.532,0,0,1-1.505.615c-.222.073-.6.156-.628.161l-.049-.227c-.014-.069-.029-.136-.043-.2C328.382,257.593,328.815,257.655,329.137,257.586Z"/><path d="M328.581,258.628a.372.372,0,0,1-.015-.057c0-.016-.009-.05-.019-.1Z"/><path d="M373.867,246.783s-21.4,3.906-23.759,4.171a39.4,39.4,0,0,0-6.591,1.811l-.037.009c-.008-.01-.014-.015-.019-.016a.918.918,0,0,0-.413.2,1.251,1.251,0,0,0-.838-.022c-.424.188-.212.239-.522.183a8.828,8.828,0,0,0-1.51-.008c-.459.028-5.252.332-5.461.342-.135.006-.808.058-1.264.093v0l-.119.014-.308.024,0,.01c-.512.055-1.328.138-1.54.123a32.24,32.24,0,0,0-3.276.471c-.226.07-.352-.037-.354.431,0,.089,0,.2.01.332,0,.021,0,.042.006.063.008.121.02.237.034.349l-.014,0a7.081,7.081,0,0,1-.257-1.452c0-.021,0-.042,0-.063-.008-.134-.012-.243-.011-.332,0-.468.128-.361.354-.431a32.285,32.285,0,0,1,3.276-.471c.212.015,1.029-.068,1.54-.123v-.01l.307-.024.119-.014,0,0c.455-.035,1.128-.087,1.263-.093.209-.01,5-.314,5.461-.342a8.827,8.827,0,0,1,1.51.008c.311.056.1,0,.523-.183a1.241,1.241,0,0,1,.837.022.918.918,0,0,1,.413-.2c.005,0,.012.006.02.015l.036-.009a39.5,39.5,0,0,1,6.591-1.811c2.357-.264,23.759-4.17,23.759-4.17s.314-.08.527.332a1.108,1.108,0,0,1,.152.705.742.742,0,0,1-.04.215A.435.435,0,0,0,373.867,246.783Z"/><path d="M328.107,256.388a.08.08,0,0,1-.019-.038c0-.024-.011-.065-.021-.115C328.083,256.3,328.1,256.349,328.107,256.388Z"/><path d="M327.976,255.812l-.072-.32.019-.007C327.939,255.6,327.957,255.712,327.976,255.812Z"/></g><path class="ac" d="M332.061,258.488s-2.137.54-2.073-.006-.161-.421-.392-.486.012-.175.2-.4.45.2.844-.181a6.059,6.059,0,0,0,.667-.653c.9-1.26-.791-.989-1.3-.951s-.832.48-.933.2-.626-.1-.125-.581.816-.344.662-.794c-.1-.28-.408.02-.842-.039s-.894-.344-.555-.414.5-.07.823-.137.5.09.572-.291-.32-.528.37-.637a4.732,4.732,0,0,0,.889-.191s.469-.341.1-.3a3.947,3.947,0,0,0-1.229.108c-1.022.209-.988.021-1.32.209s-.742.1-.973.284-.039.406-.1.782a1.025,1.025,0,0,0,.125.9,2.371,2.371,0,0,1,.273.944s.02.364.015.39c-.1.566-.445.389-.284,1.017.052.2.413.205.291.543s-.328.3,0,.829a1.392,1.392,0,0,0,.573.651c.393.258,1.468-.163,2-.2S332.231,258.789,332.061,258.488Z"/><path class="r" d="M355.054,257.045s-3.889-2.344-5.18-5.658c-.767-1.97-1.27-1.809-1.5-2.123-.764-1.041,1.627-.4,2.561,1.212.76,1.309,3.34,1.561,4.039,2.294s2.2,3.059,2.006,3.764S355.054,257.045,355.054,257.045Z"/><path class="ad" d="M314.236,330.057s-.64,7.152,3.771,11.107-10.167,0-10.167,0,2.713-6.85,2.1-11.107S314.236,330.057,314.236,330.057Z"/><ellipse class="o" cx="7.713" cy="10.523" rx="7.713" ry="10.523" transform="translate(304.197 311.784)"/><path class="q" d="M275.965,339.6c15.644-4.478,27.887-4.792,30.753-2.316a9.383,9.383,0,0,0,8.4,1.815,15.235,15.235,0,0,0,3.2-1.086c.5-.229.78-.4.78-.4a31.294,31.294,0,0,1,8.142.491c30.1,5.892,35.339,56.365,35.068,60.705-.16,2.582-2.832,14.284-6.172,24.693-2.737,8.539-5.927,16.206-8.552,17.267-5.823,2.344-49.791,5.56-58.829,1.25-.216-.16-.44-.328-.66-.513a34.783,34.783,0,0,1-9.275-13.215l-.1.059c-14.846-5.181-48.63-20.851-58.032-40.522-24.8-51.886,8.338-104.83,8.338-104.83s-5.129-7.159-3.914-8.443,5.039.676,6.168,0,4.026-2.018,4.711-1.194,1.793,4.4,4.13,3.521-4.061,4.884-2.694,6.116C255.362,299.147,270.495,320.92,275.965,339.6Z"/><path class="q" d="M350.966,346.6s.25,47.916,2.466,65.006c.414,3.228.9,5.358,1.474,5.853a.342.342,0,0,0,.116.082,6.21,6.21,0,0,0,2.944.138,27.836,27.836,0,0,0,4.082-.845,48.989,48.989,0,0,0,5.245-1.8,75.081,75.081,0,0,0,35.853-31.624,70.983,70.983,0,0,0,8.5-23.314q.568-3.129.922-6.486v-.026c.069-.634.129-1.28.181-1.931.039-.487.073-.979.108-1.474-.039-.112-.069-.207-.1-.3l0-.022-10.491-48.688a87.6,87.6,0,0,0-28.93,15.931,83.7,83.7,0,0,0-7.944,7.465c-.051.052-.1.1-.151.16A76.27,76.27,0,0,0,350.966,346.6Z"/><path class="q" d="M361.222,306.736A247.281,247.281,0,0,1,359,269.369s-10.775-5.933-5.553-7.563,4.6-1.436,6.372-4.683,2.828,1.281,4.191,1.594,4.042-5.289,5.139-2.769-2.732,7.588-1.533,9.737c0,0,54.638,22.512,44.034,94.41l-32.716-24.933-13.7-10.437C364.064,322.8,362.5,316.012,361.222,306.736Z"/><path class="ac" d="M320.1,527.538c.045-6.234.057-12.536.034-18.658v-.026c-.1-25.033-.793-47.054-2.328-49.024-1.866-2.4-6.224,29.822-9.693,62.17l-.005.017a7.2,7.2,0,0,1-.335,1.542s-.341,12.667-8.445,11.275a7.227,7.227,0,0,1-2,.722c-7.644,1.52-17.484-.037-26.208.519-4.721.3-8.647-.518-15.192-.808-14.534-.644-13.292-1.528-13.292-1.528l-4.354-11.761a2.687,2.687,0,0,1,2.392-3.618c8.085-.382,27.626-1.318,39-1.981a.164.164,0,0,1,.052-.005c4.842-.286,8.188-.517,8.517-.635l-1.6,1.425v0c-.034-2.474-.06-6.409-.073-11.224-.065-22.874.073-65.584.073-65.584a4.761,4.761,0,0,0,2.7,1.246c6.341.125,33.728.6,48.585-.259,5.241-.3,8.922-.767,9.569-1.474a.534.534,0,0,1-.005.061c-.039.819-.508,10.193-1.168,22.482-1.3,24.257-3.353,59.868-4.336,63.407-.634,2.275-.871,5.915-1.945,7.424,0,0-6.476,7.229-8.866,8.864l-44.412,30.386-11.012-13.338a175.4,175.4,0,0,0,20.89-14.051c3.39-2.631,7.057-5.513,10.887-8.558l.02-.017c4.675-3.715,9.593-7.671,14.544-11.7Z"/><path class="ac" d="M294.6,439.908c4.538,7.9,41.192,6.1,45.226,0,0,0,15.013-35.809,11.987-46.2,0,0-8.6,1.487-18.34,3.948-10.857,2.741-23.12,6.7-26.413,11.155-3.741,5.064-9.1,12.387-11.823,19.146l0,.008c-.254.638-.487,1.272-.694,1.9s-.379,1.228-.53,1.832v.013C293.254,434.8,293.3,437.632,294.6,439.908Z"/><path class="ac" d="M333.477,337.134s19.272,14.547,18.34,56.57l-5.7,1.836s2.31-42.035-16.669-58.945A3.475,3.475,0,0,1,333.477,337.134Z"/><path class="ae" d="M295.237,427.96c-.082.4-.164.785-.241,1.147,4.694-6.6,24.141-5.1,24.141-5.1.517-15.891,14.34-26.352,14.34-26.352-10.857,2.741-23.12,6.7-26.413,11.155-3.741,5.064-9.1,12.387-11.823,19.146Z"/><path class="ae" d="M295,429.107a5.016,5.016,0,0,0-.453.75,5.252,5.252,0,0,0-.53,1.832v.013C293.711,434.611,294.177,432.9,295,429.107Z"/><path class="af" d="M278.725,428.352v.005A34.783,34.783,0,0,0,288,441.572c-3.289-17.348-8.408-51.6-8.133-61.342-9.005,22.474-.927,47.5-1.138,48.1Z"/><path class="ag" d="M338.409,512.557c.17-.118.24-.383-.048-.38a.519.519,0,0,0,.5-.182c-.193,0-.139-.16-.123-.263.137.086.159.2.2.439-.419.209.213.662-.251.855C338.591,512.879,338.3,512.733,338.409,512.557Z"/><path class="ag" d="M337.151,511.6l.115-.031-.183.363C337.177,511.857,337.287,511.61,337.151,511.6Z"/><path class="v" d="M337.451,510.419c-.211.036-.335-.148-.527-.141.424,0,.082-.291.133-.452l.324-.07c.239.15.141.545.176.878Z"/><path class="ag" d="M337.206,510.124l.207-.109C337.359,510.1,337.33,510.307,337.206,510.124Z"/><path class="ag" d="M338.352,510.332c.032.262-.142-.156-.207.109C338.2,510.351,338.214,510.249,338.352,510.332Z"/><path class="v" d="M337.677,509.249c-.046.187-.088.373-.139.558l-.147-.225Z"/><path class="v" d="M336.982,509.238a.139.139,0,0,0,.237.076c-.264-.19.094-.323-.13-.5l-.1.178c-.272-.015.264-.374-.216-.349.33-.249.415.166.645-.151a1.12,1.12,0,0,0,.127.748c-.1-.068-.084-.1-.167-.2-.008.175-.147.413-.172.616C336.888,509.559,337.167,509.4,336.982,509.238Z"/><path class="v" d="M336.886,508.364c-.03-.185-.055-.471.307-.538.266.186-.038.234-.186.329.061.055.093.24.281.157C337.209,508.288,337.026,508.443,336.886,508.364Z"/><path class="v" d="M336.79,507.636l.315-.152-.05.09h.231c-.056.019-.474.105-.438.289C336.666,507.773,336.875,507.731,336.79,507.636Z"/><path class="v" d="M338.383,507.513c-.165-.12-.075-.2.008-.353-.021.208,0,.5-.125.567l.056-.019a1.789,1.789,0,0,1-.376.347C338.159,507.836,337.8,507.48,338.383,507.513Z"/><path class="v" d="M338.424,507.775l.18-.159Z"/><path class="v" d="M336.837,507.056l.12.28-.1-.065Z"/><path class="v" d="M337.827,507.347c-.058-.23.261.113.243-.1.033-.061.008.322-.145.346C337.863,507.535,338.1,507.357,337.827,507.347Z"/><path class="v" d="M336.8,506.871l.23-.249Z"/><path class="v" d="M336.611,506.3l.169-.057c-.159-.217.059-.541-.324-.678.216.023.432-.128.51.068-.111.039-.1.11-.24.109.048.082.2.054.264.106-.177.16-.019.378-.179.507.032-.06-.008-.071-.031-.112-.282.268.454.266-.037.406C336.891,506.546,336.546,506.415,336.611,506.3Z"/><path class="v" d="M337.786,506.239l.079.2c.224-.077-.007-.248.2-.295.136,0,.215.2.3.121-.535.059-.009.28-.616.212-.054.267.334.061.319.341l-.282.1C337.917,506.6,337.666,506.556,337.786,506.239Z"/><path class="v" d="M337.646,505.463l-.183-.085.255.034c.013-.457-1.044-.634-.923-.915.309-.368-.225-.635-.205-.982.2-.189.143.148.278.153.42-.09-.238-.141.1-.254.306-.054.364.32.563.452-.032.134-.127.14-.3.2.174.017.238.144.413.161-.216.291.252.394.016.682.241.064.028-.2.071-.118l.007.146-.039-.012c-.224.216.023.563.19.68-.087-.094-.286-.149-.351-.026l.279.077-.377.281C337.693,505.721,337.151,505.538,337.646,505.463Z"/><path class="v" d="M338.156,505.709c.166.294-.408-.008-.257.316l0-.352Z"/><path class="ag" d="M337.363,504.315l-.2-.132C337.552,504.23,337.065,504.509,337.363,504.315Z"/><path class="ag" d="M337.316,503.765l-.341.112.184-.159Z"/><path class="v" d="M336.848,503.307c.164-.129.328-.012.3.122C337.119,503.314,336.96,503.269,336.848,503.307Z"/><path class="v" d="M336.568,504.841a.2.2,0,0,0,.017.087Z"/><path class="v" d="M336.556,504.785l.012.056A.22.22,0,0,0,336.556,504.785Z"/><path class="v" d="M336.989,510.866a.263.263,0,0,0-.019.117l.022-.116Z"/><path class="v" d="M337.477,511c.222-.21-.53-.218-.372-.554a3.529,3.529,0,0,0-.113.422C337.344,511.057,337.176,510.717,337.477,511Z"/><path class="v" d="M337.828,508.176c0-.005,0-.008.01-.012C337.849,508.143,337.838,508.154,337.828,508.176Z"/><path class="ag" d="M336.646,520.074l-.1-.008.1.2Z"/><path class="ag" d="M336.476,520.03l-.151-.33c-.078.612-.17,1.223-.268,1.832l.14-.043C336.371,521.537,336.334,519.96,336.476,520.03Z"/><path class="ag" d="M336.635,519.958c.415-.138-.113-.314.191-.505-.2.128-.421.211-.335.362Z"/><path class="ah" d="M337.465,519.417c-.069-.108.112-.211.058-.273C337.214,519.15,337.433,519.327,337.465,519.417Z"/><path class="v" d="M338.654,519.259a.074.074,0,0,0,.007-.046.3.3,0,0,1-.062.042Z"/><path class="v" d="M338.6,519.255l-.137-.01A.115.115,0,0,0,338.6,519.255Z"/><path class="v" d="M338.661,519.213a.582.582,0,0,1,.156-.1l.016.046c.042-.057.162-.152.087-.187.013.12-.083.113-.275.1l-.009-.193C338.177,518.868,338.647,519.04,338.661,519.213Z"/><path class="ah" d="M338.823,518.62l-.279.173C338.791,518.87,338.819,518.694,338.823,518.62Z"/><path class="v" d="M338.55,518.306c-.079.039-.07.232-.179.106-.054.027-.047.065-.049.1C338.4,518.393,338.693,518.54,338.55,518.306Z"/><path class="v" d="M338.322,518.516a.115.115,0,0,0-.017.054A.1.1,0,0,0,338.322,518.516Z"/><path class="ah" d="M336.988,520.425a.114.114,0,0,0-.1-.024Z"/><path class="v" d="M338.3,517.893l0-.073a.163.163,0,0,1-.017.058Z"/><path class="v" d="M335.189,523.557a.978.978,0,0,1,.128-.831c.323.055.111-.13.457-.1a3.605,3.605,0,0,0,.178-.506c.12-.348.264-.7.318-.547l-.162.069.353-.048c-.064-.19-.3-.467-.094-.565-.1-.046-.208,1.518-.3,1.445.384.2.652-2.031.827-2.071l-.205-.048c.25-.252.569-.4.739-.619l-.245-.078c.064.18-.112.209-.239.372.079-.3-.07-.369,0-.6.325.041.139.215.351-.059-.128-.1-.506.061-.41-.192-.057-.322.416-.215.47-.488l.106.2c.024-.1.111-.284-.057-.4a.457.457,0,0,1-.52.355c.083-.11-.019-.378.006-.477l-.234.042c-.2-.129.124-.165-.06-.321.141-.121.322.107.422.041-.076-.034-.177-.3-.019-.377.476.1-.17.293.283.5l-.065-.251c.489-.115-.039.39.349.343.509-.144-.441-.422.2-.542.11.123.091.488.266.455-.167-.143.179-.207.256-.38l-.2-.233c.159-.079.155-.006.247.073-.254-.336.106-.847-.206-1.316.086-.26.213-.02.39-.131-.282-.158-.028-.382-.027-.529-.019-.045.271-.11.386-.062l-.2.362c.155-.009.4.059.361.191-.555-.126.309.546-.326.533l.288.013-.227.462-.038-.017c.1.006-.221.387-.122.658.1-.068.023-.515.32-.233.18-.183-.059-.551.088-.9l.19.082c.3-.358-.028-.877.051-1.289l-.271.11c-.1-.151-.3-.348-.071-.474-.021.176.134.092.249.065.157-.233.01-.592.126-.916a.2.2,0,0,1-.1,0l.172-.338c-.04-.164-.194-.225-.368-.329.038-.059.037-.207.191-.147.014.032.028.065.012.085.3-.166-.082-.123.1-.336-.249.162-.347-.06-.6-.046.115-.25.443-.014.559-.043-.136-.311-.348-.354-.4-.664.154-.015.1.221.276.25-.041-.089-.024-.192.033-.207l.121.191a1.13,1.13,0,0,1-.1-.991l.078.029-.006-.222-.287.079c.074-.119-.18-.247.05-.311l.02.044.092-.15-.284.154c-.119-.188.462-.453.411-.764-.388-.063-.13.536-.629.577-.082-.1-.167-.274-.035-.337.136.011.139.085.142.158.258-.272-.165-.671.27-.848l.163.2c.047-.239-.48-.381-.194-.466l-.493.2c.241-.244.187-.551.363-.78.288-.013,0,.325.059.308l.205-.113c-.177-.346-.18-.1-.362-.515l.193-.009c-.3-.132.254-.531-.256-.37l.123.111-.232,0,.142-.495c-.171.055-.128-.183-.355-.111l.2-.188c-.332-.067-.378.346-.629.375-.151,0-.135-.085-.115-.127-.237.224.339.308.354.523l-.205.113.288-.015a.715.715,0,0,1-.353.208c.4.2-.066.441.028.757.162-.269.278.164.353.118.007.147-.5.514-.144.634.139.083.2-.182.27.021a.215.215,0,0,1-.321.141,4.466,4.466,0,0,0-.021.964l.191-.077c.159.2-.105.4-.315.5.078.029.021.044.135.014.315.259-.4.324-.326.744-.27-.028-.295-.216-.163-.347l-.308.031a1.975,1.975,0,0,1,.241-1.06l-.227.135c-.412-.252.4-.182-.071-.418.108-.176.161.127.289-.007-.09-.124-.531.034-.553-.173-.155.778-.128,1.662-.2,2.473-.058.014-.077-.029-.1-.072-.214.135-.044.772.049,1.387s.149,1.2-.258,1.216c.114.048.253-.076.228.095a.35.35,0,0,1-.25.005c.407.462-.087,1.014.159,1.558-.134-.022-.217.088-.313.082.3.205-.063.484.1.667l-.151-.068-.046.528c-.059.01-.055-.062-.072-.106-.083.109.089.15.222.174l-.359.2c.487.745-.47,1.506-.222,2.331-.279.085-.4.171-.459.365l-.068-.108c-.247.172.133.03,0,.187-.183.093-.4-.019-.237-.156-.078-.11-.177-.062-.25,0A2.589,2.589,0,0,0,335.189,523.557Z"/><path class="ai" d="M340.169,412.984c.9-.641,1.656-1.454,2.429-2.114l-.921.791a4.449,4.449,0,0,0,1.066-1.393c-.308-.047-.458.374-.761.2a15.051,15.051,0,0,0-2.521,3.642C340.4,414.241,339.87,413.252,340.169,412.984Z"/><path class="ai" d="M343.671,408.844c-.115.1-.224.2-.33.3A.867.867,0,0,0,343.671,408.844Z"/><path class="ai" d="M331.534,418.362a2.164,2.164,0,0,0-.363.373A1.547,1.547,0,0,0,331.534,418.362Z"/><path class="ai" d="M337.515,413.1a1.4,1.4,0,0,0-.289.1q-.6.831-1.152,1.731C336.5,414.3,337.286,413.927,337.515,413.1Z"/><path class="ai" d="M337.508,412.081a4.293,4.293,0,0,0,1.135-1.795A7.778,7.778,0,0,1,337.508,412.081Z"/><path class="ai" d="M325.364,421.3a.278.278,0,0,0-.156-.033.221.221,0,0,1-.1.024c-.058.331-.1.669-.139,1,.063-.061.205-.082.241-.155C325.259,421.773,325.005,421.574,325.364,421.3Z"/><path class="ai" d="M331.661,418.218l.039.005.14-.116-.005-.029A.862.862,0,0,0,331.661,418.218Z"/><path class="ai" d="M325.505,420.911a1.608,1.608,0,0,1-.292-.183l-.106.558a.5.5,0,0,1,.1-.02C325.337,421.192,325.3,420.967,325.505,420.911Z"/><path class="ai" d="M326.657,416.782c.07-.094.337-.047.419-.059a4.3,4.3,0,0,1,.163-1.036c.084-.009.155-.1.322-.119a1.615,1.615,0,0,1-.1-.32q-.315.492-.6,1.024t-.56,1.1A3.609,3.609,0,0,0,326.657,416.782Z"/><path class="ai" d="M325.531,435.348a7.735,7.735,0,0,0-.257-1.541,1.933,1.933,0,0,1,.222-1.538c.389,1.118.723,2.6,1.823,2.583.548-.006.521-.34.365-.781a4.639,4.639,0,0,1-.385-1.41l.233.2c-.116-.1-.233-.2-.106-.3.236.207.446.6.818.687l.246-.187a3.525,3.525,0,0,1,.963.871,2.565,2.565,0,0,0,1.006.752,3.863,3.863,0,0,1-1.814-3.881A14.516,14.516,0,0,1,330,426.391a8.076,8.076,0,0,1,3.995-3.15,2.823,2.823,0,0,0,.642-1.142,7.051,7.051,0,0,1,1.971-1.523c1.366-1.052,1.958-2.7,3.344-4.025.276-.257-.135-1.368-1.013-.877a5.185,5.185,0,0,0-1.947,1.451c.316.145.4-.272.711-.241a4.157,4.157,0,0,1-.844,1.4c.252-.275.514-.547.778-.817-.666.676-1.264,1.509-2.016,2.207-.247.287.452,1.156-.468,1.142a10.821,10.821,0,0,1,1.839-3.7l-.023-.01c.431-.451.778-.9,1.194-1.35-.161.111-.338.214-.4.378a8.833,8.833,0,0,1,1.492-2.249,8.11,8.11,0,0,0-3.109,2.463c-.854,1.015-1.582,2.1-2.462,3.006-.059-.906,1.147-1.183.981-2.089a15.461,15.461,0,0,0-1.836,2.984,1.341,1.341,0,0,1,.261-.137,2.155,2.155,0,0,1-.421,1.037,4.8,4.8,0,0,0-.577.926l-.063.183a1.72,1.72,0,0,1,.063-.183,16.663,16.663,0,0,1,.737-1.826,1.535,1.535,0,0,0-.574.8,1.65,1.65,0,0,1,.049-.9l.59-1.018a5.219,5.219,0,0,1-1.334,1.222,13.412,13.412,0,0,1,1.078-2.312c-.3.356-.6.708-.888,1.074-.332.713-.655,1.424-.969,2.143l.063-.067-.1.149-.379.839a2.04,2.04,0,0,1-.658.59l-.065.122c.133-.034.247-.026.226.149-.018.764-.809,1.272-.691,2.187a1.207,1.207,0,0,1-.3.749c.049.1-.012.13-.1.144l-.119.173a1.306,1.306,0,0,1-.229.444,2.368,2.368,0,0,1,.229-.444c.024-.057.05-.113.079-.168-.1.012-.216.022-.251.107a14.787,14.787,0,0,1,1.152-3.341c-.109.028-.231.085-.3.1l.366-.222a7.387,7.387,0,0,1,.628-.985.973.973,0,0,1-.391.155,13.261,13.261,0,0,1,1.805-2.824,26.221,26.221,0,0,1,1.493-2.806,5.7,5.7,0,0,1-.6,1.732,25.354,25.354,0,0,0,2.888-3.788,4.842,4.842,0,0,1-1.441-.094c-.18-.168.1-.62-.208-.482-1.25.416-1.28,1.431-2.644.956-.358-.154-.549-2-1.027-1.838a8.37,8.37,0,0,0-1.319,1.161,5.271,5.271,0,0,1-.33.554c.005.037-.085.029-.19.025a7.049,7.049,0,0,0-1.091,1.6l-.175.435a.838.838,0,0,0,.142.328,1.07,1.07,0,0,0-.336.128c-.158.39-.326.764-.494,1.135-.009.256,0,.516-.022.757-.074-.045-.157-.133-.253-.137-.21.464-.417.924-.625,1.382a1.589,1.589,0,0,0,.21.72c-.923.165-1.017,1.522-1.414,2.311l-.026-.011c-.154.417-.282.853-.409,1.292a1.562,1.562,0,0,0,.182.282c-.159.067-.2.18-.276.216a4.452,4.452,0,0,0,.144,1.057c-.078.036-.344.076-.379.191a3.692,3.692,0,0,1-.164.682c-.039.264-.058.538-.074.814a11.1,11.1,0,0,0,0,1.389,11.905,11.905,0,0,0,.146,1.372,1.653,1.653,0,0,0,.337.07c-.167.124-.064.324-.156.441a.273.273,0,0,1,.157-.025c-.222.392.074.486.161.846-.007.08-.132.154-.171.233.011.04.019.08.032.12.555.413.37.806.407,1.259.178.442.332.876.537,1.3C324.9,435.069,325.274,435.152,325.531,435.348Z"/><path class="ai" d="M324.954,422.412c-.053.433-.073.877-.1,1.308C325,423.3,325.3,422.989,324.954,422.412Z"/><path class="ai" d="M330.122,412.354a1.58,1.58,0,0,1-.046-.732c-.629.823-1.268,1.645-1.883,2.529l.022.017C328.8,413.538,329.2,412.282,330.122,412.354Z"/><path class="ai" d="M325.208,421.266a.5.5,0,0,0-.1.02v0A.221.221,0,0,0,325.208,421.266Z"/><path class="ai" d="M334.912,413.93l.054-.074q-.291.206-.561.432A1.6,1.6,0,0,0,334.912,413.93Z"/><path class="ai" d="M336.368,411.887l1.075-.937a5.423,5.423,0,0,0,.855-1.654C337.623,410.124,337,411,336.368,411.887Z"/><path class="ai" d="M331.167,410.647c.064-.223.1-.477.159-.712l-.377.525C331.039,410.485,331.1,410.587,331.167,410.647Z"/><path class="ai" d="M333.45,415.238l.094-.107-.414.136C333.2,415.268,333.336,415.24,333.45,415.238Z"/><path class="ai" d="M332.24,408.568l-.255.4a1.089,1.089,0,0,1,.343-.056A.854.854,0,0,1,332.24,408.568Z"/><path class="ai" d="M333.919,406.86a4.328,4.328,0,0,0,.381-.475c-.19.148-.382.307-.567.469C333.834,406.874,333.92,406.9,333.919,406.86Z"/><path class="aj" d="M239.038,321.057a6.555,6.555,0,0,0,1.162-1.013l-.435.38a1.1,1.1,0,0,0,.347-.782c-.246-.1-.22.175-.5-.008a4.621,4.621,0,0,0-.772,2.078C239.594,322.009,238.893,321.184,239.038,321.057Z"/><path class="aj" d="M240.333,318.811a1.836,1.836,0,0,0-.147.145C240.259,318.924,240.325,318.888,240.333,318.811Z"/><path class="aj" d="M233.633,322.5a.677.677,0,0,0-.227.118A.361.361,0,0,0,233.633,322.5Z"/><path class="aj" d="M237.051,320.555a.772.772,0,0,0-.193,0c-.146.3-.28.612-.407.938C236.619,321.164,237.115,321.085,237.051,320.555Z"/><path class="aj" d="M236.742,319.83a1.149,1.149,0,0,0,.3-1.022A1.974,1.974,0,0,1,236.742,319.83Z"/><path class="aj" d="M229.052,321.782a.618.618,0,0,0-.128-.091.28.28,0,0,1-.078-.033c-.021.156-.04.315-.055.476.048,0,.16.054.186.032C229,321.99,228.789,321.771,229.052,321.782Z"/><path class="aj" d="M233.709,322.444l.032.016.09-.029-.009-.02A.264.264,0,0,0,233.709,322.444Z"/><path class="aj" d="M229.134,321.631c-.091-.082-.183-.164-.249-.237-.014.087-.027.174-.039.262a.746.746,0,0,1,.078.035C229.022,321.71,228.978,321.57,229.134,321.631Z"/><path class="aj" d="M229.5,319.711c.037-.031.254.1.316.124a1.928,1.928,0,0,1-.069-.577c.063.024.1-.008.226.042a2.165,2.165,0,0,1-.142-.236,6.286,6.286,0,0,0-.512.859A.567.567,0,0,0,229.5,319.711Z"/><path class="aj" d="M227.131,327.844c.417-.2.24-1.007,1.017-.887,0,.641-.331,1.247.442,2.008s.509-.443.8-.7l.107.226c-.054-.113-.107-.226.019-.177a2.75,2.75,0,0,0,.376.79l.253.1c.448.725.265,1.2.713,1.931-1.162-2.658.812-3.261,1.975-4.274a6.648,6.648,0,0,1,3.383-.236c.2-.014.363-.317.455-.556a3.623,3.623,0,0,1,1.431-.449c.96-.359,1.07-1.412,1.8-2.048.145-.127-.483-1.015-1.027-.861a1.721,1.721,0,0,0-1.157.561c.283.184.257-.087.5.009a1.093,1.093,0,0,1-.347.782q.218-.191.436-.38a6.719,6.719,0,0,1-1.163,1.013c-.146.126.556.951-.2.655a4.6,4.6,0,0,1,.773-2.079l-.022-.013a8.38,8.38,0,0,0,.6-.665c-.1.041-.205.073-.215.173a2.766,2.766,0,0,1,.531-1.261c-1.664.175-1.962,1.71-3.086,2.371-.2-.627.707-.457.385-1.134a6.532,6.532,0,0,0-.942,1.452.767.767,0,0,1,.193,0c.064.53-.432.61-.6.94-.012.032-.025.063-.037.1a.672.672,0,0,1,.037-.1c.128-.326.262-.641.408-.938a.445.445,0,0,0-.369.329.949.949,0,0,1-.069-.578c.112-.156.224-.312.322-.478a1.417,1.417,0,0,1-.9.343,5.617,5.617,0,0,1,.5-1.157c-.174.14-.351.276-.526.415a10.15,10.15,0,0,1-.513,1.028l.045-.018-.066.056c-.077.127-.157.253-.244.373a.737.737,0,0,1-.506.083l-.048.045c.108.038.2.092.191.189.015.465-.635.394-.565.972.017.151-.118.217-.283.273.034.083-.017.067-.09.029l-.108.037a.358.358,0,0,1-.227.117.725.725,0,0,1,.227-.117.512.512,0,0,1,.075-.054c-.082-.043-.177-.1-.211-.068a7.775,7.775,0,0,1,.991-1.378c-.088-.03-.185-.05-.242-.072.1.011.2.021.29.027a2.482,2.482,0,0,1,.455-.341.829.829,0,0,1-.309-.066,5.449,5.449,0,0,1,1.138-1.115c.21-.476.407-.956.647-1.4a1.688,1.688,0,0,1-.121.983,3.8,3.8,0,0,0,1.391-1.771,5.782,5.782,0,0,1-1.137-.445c-.181-.162-.088-.4-.288-.387-.849-.058-.628.616-1.8-.117-.306-.212-.922-1.5-1.248-1.536a2.3,2.3,0,0,0-.724.341.846.846,0,0,1-.129.243c.012.026-.059-.01-.141-.048a1.492,1.492,0,0,0-.513.618c-.017.069-.036.136-.056.2a1.35,1.35,0,0,0,.171.257.917.917,0,0,0-.239-.05,4.144,4.144,0,0,1-.2.483c.029.147.07.3.086.437a1.382,1.382,0,0,0-.218-.187,6.16,6.16,0,0,1-.334.526,1.588,1.588,0,0,0,.232.5c-.722-.329-.7.369-1.015.566l-.021-.019c-.11.143-.219.287-.324.438a2.335,2.335,0,0,0,.142.236c-.126-.049-.163-.018-.226-.043a1.906,1.906,0,0,0,.07.578c-.064-.025-.28-.155-.316-.124a.578.578,0,0,1-.182.212c-.048.1-.094.2-.137.306a5.963,5.963,0,0,0-.3,1.166c.067.072.158.154.248.236-.155-.061-.111.079-.209.06a.589.589,0,0,1,.127.091c-.262-.011-.055.207-.074.384-.025.022-.138-.035-.186-.033l-.005.059c.306.482.06.488-.048.638-.015.23-.027.463-.039.7C226.79,327.343,227.023,327.618,227.131,327.844Z"/><path class="aj" d="M228.786,322.192c-.02.21-.035.423-.049.638C228.845,322.679,229.092,322.674,228.786,322.192Z"/><path class="aj" d="M231.2,318.079a1.587,1.587,0,0,1-.232-.5c-.253.359-.532.7-.8,1.047l.021.018C230.5,318.448,230.473,317.751,231.2,318.079Z"/><path class="aj" d="M228.924,321.691a.746.746,0,0,0-.078-.035v0A.28.28,0,0,0,228.924,321.691Z"/><path class="aj" d="M235.286,320.5l.021-.037a2.3,2.3,0,0,0-.316.152A.463.463,0,0,0,235.286,320.5Z"/><path class="aj" d="M235.819,319.43c.176-.138.354-.275.527-.415a1.688,1.688,0,0,0,.12-.983C236.227,318.474,236.03,318.954,235.819,319.43Z"/><path class="aj" d="M231.516,317.241c-.016-.133-.058-.29-.087-.436-.042.085-.086.168-.131.249A1.541,1.541,0,0,1,231.516,317.241Z"/><path class="aj" d="M234.488,321l.048-.046c-.093-.006-.191-.016-.29-.027C234.3,320.947,234.4,320.967,234.488,321Z"/><path class="aj" d="M231.7,316.114c-.021.071-.044.14-.068.208a.884.884,0,0,1,.24.049A1.229,1.229,0,0,1,231.7,316.114Z"/><path class="aj" d="M232.411,315.344a.865.865,0,0,0,.129-.244,3.31,3.31,0,0,0-.269.2C232.352,315.334,232.424,315.369,232.411,315.344Z"/><path class="af" d="M311.388,361.71s14.131,44.549-26.3,63.022l-1.6-10.444s20.48-26.875,20.552-27.56S311.388,361.71,311.388,361.71Z"/><path class="aj" d="M309.474,340.429c.3-.039.435-.112.319-.228C309.706,340.114,309.594,340.2,309.474,340.429Z"/><path class="af" d="M314.43,341.545c.772.772,2.586,2.474,4.138,2.556a1.78,1.78,0,0,0,1.569-.724,14.445,14.445,0,0,1,6.388-4.064c.78-.276.866-.7.62-1.143a5.886,5.886,0,0,0-1.918-1.637c-3.668.125-6.146.724-6.917,1.431a.371.371,0,0,0-.087.112,15.176,15.176,0,0,1-3.2,1.086C314.383,340.136,313.956,341.071,314.43,341.545Z"/><path class="ac" d="M259.141,405.608s7.935,10.814,10.961,11.275,31.046,7.3,40.7-25.585c4.038-13.754,3.345-25.435-.4-36.7a24.446,24.446,0,0,1-1.108-8.383,21.732,21.732,0,0,1,.664-4.9,4.582,4.582,0,0,1,.327-.892,10.654,10.654,0,0,1-1.642.026C307.014,340.4,305,340.2,305,340.2a16.487,16.487,0,0,0-3.211,4.15,21.841,21.841,0,0,0-2.147,15.526C305.277,387.376,279.011,406.72,259.141,405.608Z"/><path class="ak" d="M308.482,346.218a24.657,24.657,0,0,0-7.495-1.867,16.487,16.487,0,0,1,3.211-4.15s2.013.2,3.633.254l1.315.866Z"/><path class="ac" d="M314.775,335.543s-4.628,2.721-6.935.647-3.727-2.261-4.741-.647-2.434,7.666,3.854,7.379,7.91,3.364,11.054-.693S319.709,334.127,314.775,335.543Z"/><g class="al"><path d="M311.923,441.841l-.3-.025Z"/><path d="M311.923,441.841c8.161.652,26-.5,26-.5,5.241-.3,8.922-.767,9.568-1.474,0,0,0,.022,0,.06-.039.819-.508,10.194-1.168,22.482a6.053,6.053,0,0,1-.858-.1,6.673,6.673,0,0,1-4.318-3.069,14.852,14.852,0,0,1-1.68-3.507C333.377,444.155,314.538,442.076,311.923,441.841Z"/></g><path class="p" d="M309.011,316.267s13.353,7.4,9.39-4.483C315.659,303.56,299.9,310.968,309.011,316.267Z"/><path class="p" d="M310.947,313.427s-7.471,4.433-6.75,8.88c0,0-1.648-13.277,5.781-13.611s10.3.384,9.644,14.423C319.622,323.119,317.464,311.951,310.947,313.427Z"/><path class="p" d="M312.893,308.81s26.087-20.318,7.214-31.54S283.42,264.5,288,248.946c3.315-11.257,0-23.427,0-23.427s0,5.781-12.237,20.385c-4.218,5.034-29.944,26.769-5.137,44.116C293.782,306.211,307.84,298.843,312.893,308.81Z"/><path class="af" d="M357.914,417.375l.052.3a27.836,27.836,0,0,0,4.082-.845,48.989,48.989,0,0,0,5.245-1.8c2.125-20.1-9.379-40.317-9.379-40.317C363.147,389.721,357.552,416.307,357.914,417.375Z"/></g></svg>